# xmcd
#
# Track frame offsets:
#	150
#	13434
#	28440
#	47894
#	60839
#	76078
#	89584
#	104561
#	119830
#	139057
#	153834
#	169874
#	185493
#	198420
#	209937
#	224476
#	240522
#	256440
#
# Disc length: 3618 seconds
#
# Revision: 1
# Processed by: cddbd v1.5.2PL0 Copyright (c) Steve Scherf et al.
# Submitted via: audiograbber 1.82.02
#
DISCID=150e2012
DTITLE=Various Artist - Country Radio - September 2019
DYEAR=2019
DGENRE=Country
TTITLE0=Mac Powell and The Family Reunion - Back Again
TTITLE1=Blanco Brown - Git Up. The (Clean Single Edit)
TTITLE2=Cody Johnson - Nothin' On You
TTITLE3=Jon Langston - Now You Know
TTITLE4=Kane Brown - Homesick
TTITLE5=Brown and Gray - USA
TTITLE6=Parmalee - Be Alright
TTITLE7=Morgan Wallen - Chasin' You
TTITLE8=Aaron Russell - For Just Who I Am
TTITLE9=Kenny Chesney - Tip Of My Tongue
TTITLE10=Rodney Atkins - Thank God For You
TTITLE11=Gabby Barrett - I Hope
TTITLE12=Drew Baldridge - Middle Of Nowhere Kids
TTITLE13=Toby Keith - That's Country Bro
TTITLE14=Jessie G - Whatever This Is
TTITLE15=Miranda Lambert - It All Comes Out In The Wash
TTITLE16=Jessica Meuse - Love Her Better (Album Ver)
TTITLE17=Billy Currington - Details
EXTD=
EXTT0=
EXTT1=
EXTT2=
EXTT3=
EXTT4=
EXTT5=
EXTT6=
EXTT7=
EXTT8=
EXTT9=
EXTT10=
EXTT11=
EXTT12=
EXTT13=
EXTT14=
EXTT15=
EXTT16=
EXTT17=
PLAYORDER=
